<?xml version="1.0"?>
<svg xmlns="http://www.w3.org/2000/svg" id="Layer_1" height="512px" viewBox="0 0 512 512" width="512px" data-name="Layer 1"><g><path d="m490 121.039v-64.653c0-21.499-16.8-39.386-37.452-39.386h-393.1c-20.648 0-37.448 17.887-37.448 39.386v316.914c0 21.5 16.8 38.7 37.448 38.7h92.621c7 13 16.46 24.067 27.017 31.265l73.533 50.224a6.037 6.037 0 0 0 3.381 1.079 5.97 5.97 0 0 0 3.381-1.025l73.532-50.287c10.557-7.198 20.014-18.256 27.018-31.256h92.617c20.652 0 37.452-17.2 37.452-38.7v-252.107c0-.026 0-.051 0-.077s0-.051 0-.077zm-430.552-92.039h393.1c14.032 0 25.452 12.5 25.452 27.386v58.614h-444v-58.614c0-14.886 11.416-27.386 25.448-27.386zm266.7 404.5-70.148 47.842-70-47.842c-18.509-12.62-34-42.191-34-64.576v-99.612l104-51.082 104 51.23v99.461c0 10.728-3.252 22.83-8.818 33.974a5.76 5.76 0 0 0 -.61 1.338c-6.21 11.974-14.818 22.718-24.42 29.267zm126.4-33.5h-86.9a81.861 81.861 0 0 0 6.352-31.079v-103.2a5.868 5.868 0 0 0 -3.2-5.386l-110.23-54.173a5.926 5.926 0 0 0 -5.247 0l-110.131 54.019a5.85 5.85 0 0 0 -3.192 5.388v103.352a81.861 81.861 0 0 0 6.354 31.079h-86.906c-14.032 0-25.448-11.815-25.448-26.7v-246.3h444v246.3c0 14.885-11.42 26.7-25.452 26.7z" data-original="#000000" class="active-path" data-old_color="#000000" fill="#FFFFFF"/><path d="m143.31 100.876c14.869 0 26.966-12.559 26.966-27.994s-12.1-27.994-26.966-27.994-26.966 12.558-26.966 27.994 12.097 27.994 26.966 27.994zm0-43.988c8.252 0 14.966 7.174 14.966 15.994s-6.714 15.994-14.966 15.994-14.966-7.176-14.966-15.994 6.714-15.994 14.966-15.994z" data-original="#000000" class="active-path" data-old_color="#000000" fill="#FFFFFF"/><path d="m211.448 100.876c14.869 0 26.966-12.559 26.966-27.994s-12.1-27.994-26.966-27.994-26.966 12.558-26.966 27.994 12.097 27.994 26.966 27.994zm0-43.988c8.252 0 14.966 7.174 14.966 15.994s-6.714 15.994-14.966 15.994-14.966-7.176-14.966-15.994 6.718-15.994 14.966-15.994z" data-original="#000000" class="active-path" data-old_color="#000000" fill="#FFFFFF"/><path d="m75.172 100.876c14.869 0 26.966-12.559 26.966-27.994s-12.1-27.994-26.966-27.994-26.966 12.558-26.966 27.994 12.094 27.994 26.966 27.994zm0-43.988c8.252 0 14.966 7.174 14.966 15.994s-6.714 15.994-14.966 15.994-14.966-7.176-14.966-15.994 6.714-15.994 14.966-15.994z" data-original="#000000" class="active-path" data-old_color="#000000" fill="#FFFFFF"/><path d="m256 271.866a78.211 78.211 0 1 0 78.21 78.21 78.3 78.3 0 0 0 -78.21-78.21zm0 144.421a66.211 66.211 0 1 1 66.21-66.211 66.285 66.285 0 0 1 -66.21 66.211z" data-original="#000000" class="active-path" data-old_color="#000000" fill="#FFFFFF"/><path d="m285.588 324.827-39.958 37.717-19.039-19.544a6 6 0 0 0 -8.6 8.373l23.16 23.78a6 6 0 0 0 8.417.177l44.254-41.771a6 6 0 0 0 -8.238-8.727z" data-original="#000000" class="active-path" data-old_color="#000000" fill="#FFFFFF"/></g> </svg>
